<svg width="169" height="28" viewBox="0 0 169 28" fill="none" xmlns="http://www.w3.org/2000/svg">
<path d="M5.952 22.8479C4.82133 22.8479 3.808 22.6559 2.912 22.2719C2.016 21.8666 1.30133 21.2906 0.767997 20.5439C0.255997 19.7759 -3.33786e-06 18.8479 -3.33786e-06 17.7599C-3.33786e-06 16.6719 0.255997 15.7652 0.767997 15.0399C1.30133 14.2932 2.02666 13.7386 2.944 13.3759C3.88266 12.9919 4.94933 12.7999 6.144 12.7999H10.496V11.9039C10.496 11.1572 10.2613 10.5492 9.792 10.0799C9.32266 9.58923 8.576 9.3439 7.552 9.3439C6.54933 9.3439 5.80266 9.57857 5.312 10.0479C4.82133 10.4959 4.50133 11.0826 4.352 11.8079L0.639997 10.5599C0.895997 9.74924 1.30133 9.01324 1.856 8.3519C2.432 7.66924 3.18933 7.12524 4.128 6.7199C5.088 6.29323 6.25066 6.0799 7.616 6.0799C9.70666 6.0799 11.36 6.60257 12.576 7.6479C13.792 8.69323 14.4 10.2079 14.4 12.1919V18.1119C14.4 18.7519 14.6987 19.0719 15.296 19.0719H16.576V22.3999H13.888C13.0987 22.3999 12.448 22.2079 11.936 21.8239C11.424 21.4399 11.168 20.9279 11.168 20.2879V20.2559H10.56C10.4747 20.5119 10.2827 20.8532 9.984 21.2799C9.68533 21.6852 9.216 22.0479 8.576 22.3679C7.936 22.6879 7.06133 22.8479 5.952 22.8479ZM6.656 19.5839C7.78666 19.5839 8.704 19.2746 9.408 18.6559C10.1333 18.0159 10.496 17.1732 10.496 16.1279V15.8079H6.432C5.68533 15.8079 5.09866 15.9679 4.672 16.2879C4.24533 16.6079 4.032 17.0559 4.032 17.6319C4.032 18.2079 4.256 18.6772 4.704 19.0399C5.152 19.4026 5.80266 19.5839 6.656 19.5839ZM25.1671 22.8479C23.9084 22.8479 22.7244 22.5386 21.6151 21.9199C20.5271 21.2799 19.6524 20.3519 18.9911 19.1359C18.3297 17.9199 17.9991 16.4479 17.9991 14.7199V14.2079C17.9991 12.4799 18.3297 11.0079 18.9911 9.7919C19.6524 8.5759 20.5271 7.65857 21.6151 7.0399C22.7031 6.3999 23.8871 6.0799 25.1671 6.0799C26.1271 6.0799 26.9271 6.19723 27.5671 6.4319C28.2284 6.64524 28.7617 6.92257 29.1671 7.2639C29.5724 7.60524 29.8817 7.9679 30.0951 8.3519H30.6711V-9.91821e-05H34.7031V22.3999H30.7351V20.4799H30.1591C29.7964 21.0772 29.2311 21.6212 28.4631 22.1119C27.7164 22.6026 26.6177 22.8479 25.1671 22.8479ZM26.3831 19.3279C27.6204 19.3279 28.6551 18.9332 29.4871 18.1439C30.3191 17.3332 30.7351 16.1599 30.7351 14.6239V14.3039C30.7351 12.7679 30.3191 11.6052 29.4871 10.8159C28.6764 10.0052 27.6417 9.5999 26.3831 9.5999C25.1457 9.5999 24.1111 10.0052 23.2791 10.8159C22.4471 11.6052 22.0311 12.7679 22.0311 14.3039V14.6239C22.0311 16.1599 22.4471 17.3332 23.2791 18.1439C24.1111 18.9332 25.1457 19.3279 26.3831 19.3279ZM43.6569 22.8479C42.5262 22.8479 41.5129 22.6559 40.6169 22.2719C39.7209 21.8666 39.0062 21.2906 38.4729 20.5439C37.9609 19.7759 37.7049 18.8479 37.7049 17.7599C37.7049 16.6719 37.9609 15.7652 38.4729 15.0399C39.0062 14.2932 39.7315 13.7386 40.6489 13.3759C41.5875 12.9919 42.6542 12.7999 43.8489 12.7999H48.2009V11.9039C48.2009 11.1572 47.9662 10.5492 47.4969 10.0799C47.0275 9.58923 46.2809 9.3439 45.2569 9.3439C44.2542 9.3439 43.5075 9.57857 43.0169 10.0479C42.5262 10.4959 42.2062 11.0826 42.0569 11.8079L38.3449 10.5599C38.6009 9.74924 39.0062 9.01324 39.5609 8.3519C40.1369 7.66924 40.8942 7.12524 41.8329 6.7199C42.7929 6.29323 43.9555 6.0799 45.3209 6.0799C47.4115 6.0799 49.0649 6.60257 50.2809 7.6479C51.4969 8.69323 52.1049 10.2079 52.1049 12.1919V18.1119C52.1049 18.7519 52.4035 19.0719 53.0009 19.0719H54.2809V22.3999H51.5929C50.8035 22.3999 50.1529 22.2079 49.6409 21.8239C49.1289 21.4399 48.8729 20.9279 48.8729 20.2879V20.2559H48.2649C48.1795 20.5119 47.9875 20.8532 47.6889 21.2799C47.3902 21.6852 46.9209 22.0479 46.2809 22.3679C45.6409 22.6879 44.7662 22.8479 43.6569 22.8479ZM44.3609 19.5839C45.4915 19.5839 46.4089 19.2746 47.1129 18.6559C47.8382 18.0159 48.2009 17.1732 48.2009 16.1279V15.8079H44.1369C43.3902 15.8079 42.8035 15.9679 42.3769 16.2879C41.9502 16.6079 41.7369 17.0559 41.7369 17.6319C41.7369 18.2079 41.9609 18.6772 42.4089 19.0399C42.8569 19.4026 43.5075 19.5839 44.3609 19.5839ZM56.7844 22.3999V6.5279H60.7524V8.2559H61.3284C61.6057 7.72257 62.0644 7.2639 62.7044 6.8799C63.3444 6.47457 64.1871 6.2719 65.2324 6.2719C66.3631 6.2719 67.2697 6.4959 67.9524 6.9439C68.6351 7.37057 69.1577 7.9359 69.5204 8.6399H70.0964C70.4591 7.95724 70.9711 7.3919 71.6324 6.9439C72.2937 6.4959 73.2324 6.2719 74.4484 6.2719C75.4297 6.2719 76.3151 6.48524 77.1044 6.9119C77.9151 7.31723 78.5551 7.94657 79.0244 8.7999C79.5151 9.6319 79.7604 10.6879 79.7604 11.9679V22.3999H75.7284V12.2559C75.7284 11.3812 75.5044 10.7306 75.0564 10.3039C74.6084 9.8559 73.9791 9.6319 73.1684 9.6319C72.2511 9.6319 71.5364 9.93057 71.0244 10.5279C70.5337 11.1039 70.2884 11.9359 70.2884 13.0239V22.3999H66.2564V12.2559C66.2564 11.3812 66.0324 10.7306 65.5844 10.3039C65.1364 9.8559 64.5071 9.6319 63.6964 9.6319C62.7791 9.6319 62.0644 9.93057 61.5524 10.5279C61.0617 11.1039 60.8164 11.9359 60.8164 13.0239V22.3999H56.7844ZM83.6525 22.3999V-9.91821e-05H87.6845V12.3839H88.2605L93.5085 6.5279H98.7565L91.4285 14.2079L99.0125 22.3999H93.8285L88.2605 16.0959H87.6845V22.3999H83.6525ZM107.534 22.8479C105.955 22.8479 104.558 22.5172 103.342 21.8559C102.147 21.1732 101.208 20.2239 100.526 19.0079C99.8644 17.7706 99.5338 16.3199 99.5338 14.6559V14.2719C99.5338 12.6079 99.8644 11.1679 100.526 9.9519C101.187 8.71457 102.115 7.76523 103.31 7.1039C104.504 6.42123 105.891 6.0799 107.47 6.0799C109.027 6.0799 110.382 6.4319 111.534 7.1359C112.686 7.81857 113.582 8.77857 114.222 10.0159C114.862 11.2319 115.182 12.6506 115.182 14.2719V15.6479H103.63C103.672 16.7359 104.078 17.6212 104.846 18.3039C105.614 18.9866 106.552 19.3279 107.662 19.3279C108.792 19.3279 109.624 19.0826 110.158 18.5919C110.691 18.1012 111.096 17.5572 111.374 16.9599L114.67 18.6879C114.371 19.2426 113.934 19.8506 113.358 20.5119C112.803 21.1519 112.056 21.7066 111.118 22.1759C110.179 22.6239 108.984 22.8479 107.534 22.8479ZM103.662 12.6399H111.086C111 11.7226 110.627 10.9866 109.966 10.4319C109.326 9.87724 108.483 9.5999 107.438 9.5999C106.35 9.5999 105.486 9.87724 104.846 10.4319C104.206 10.9866 103.811 11.7226 103.662 12.6399ZM120.054 28.7999V25.2799H128.694C129.291 25.2799 129.59 24.9599 129.59 24.3199V20.3199H129.014C128.843 20.6826 128.577 21.0452 128.214 21.4079C127.851 21.7706 127.361 22.0692 126.742 22.3039C126.123 22.5386 125.334 22.6559 124.374 22.6559C123.137 22.6559 122.049 22.3786 121.11 21.8239C120.193 21.2479 119.478 20.4586 118.966 19.4559C118.454 18.4532 118.198 17.3012 118.198 15.9999V6.5279H122.23V15.6799C122.23 16.8746 122.518 17.7706 123.094 18.3679C123.691 18.9652 124.534 19.2639 125.622 19.2639C126.859 19.2639 127.819 18.8586 128.502 18.0479C129.185 17.2159 129.526 16.0639 129.526 14.5919V6.5279H133.558V25.2159C133.558 26.3039 133.238 27.1679 132.598 27.8079C131.958 28.4692 131.105 28.7999 130.038 28.7999H120.054ZM144.832 22.8479C143.254 22.8479 141.856 22.5172 140.64 21.8559C139.446 21.1732 138.507 20.2239 137.824 19.0079C137.163 17.7706 136.832 16.3199 136.832 14.6559V14.2719C136.832 12.6079 137.163 11.1679 137.824 9.9519C138.486 8.71457 139.414 7.76523 140.608 7.1039C141.803 6.42123 143.19 6.0799 144.768 6.0799C146.326 6.0799 147.68 6.4319 148.832 7.1359C149.984 7.81857 150.88 8.77857 151.52 10.0159C152.16 11.2319 152.48 12.6506 152.48 14.2719V15.6479H140.928C140.971 16.7359 141.376 17.6212 142.144 18.3039C142.912 18.9866 143.851 19.3279 144.96 19.3279C146.091 19.3279 146.923 19.0826 147.456 18.5919C147.99 18.1012 148.395 17.5572 148.672 16.9599L151.968 18.6879C151.67 19.2426 151.232 19.8506 150.656 20.5119C150.102 21.1519 149.355 21.7066 148.416 22.1759C147.478 22.6239 146.283 22.8479 144.832 22.8479ZM140.96 12.6399H148.384C148.299 11.7226 147.926 10.9866 147.264 10.4319C146.624 9.87724 145.782 9.5999 144.736 9.5999C143.648 9.5999 142.784 9.87724 142.144 10.4319C141.504 10.9866 141.11 11.7226 140.96 12.6399ZM162.217 22.8479C160.147 22.8479 158.451 22.3999 157.129 21.5039C155.806 20.6079 155.006 19.3279 154.729 17.6639L158.441 16.7039C158.59 17.4506 158.835 18.0372 159.177 18.4639C159.539 18.8906 159.977 19.1999 160.489 19.3919C161.022 19.5626 161.598 19.6479 162.217 19.6479C163.155 19.6479 163.849 19.4879 164.297 19.1679C164.745 18.8266 164.969 18.4106 164.969 17.9199C164.969 17.4292 164.755 17.0559 164.329 16.7999C163.902 16.5226 163.219 16.2986 162.281 16.1279L161.385 15.9679C160.275 15.7546 159.262 15.4666 158.345 15.1039C157.427 14.7199 156.691 14.1972 156.137 13.5359C155.582 12.8746 155.305 12.0212 155.305 10.9759C155.305 9.39723 155.881 8.1919 157.033 7.3599C158.185 6.50657 159.699 6.0799 161.577 6.0799C163.347 6.0799 164.819 6.47457 165.993 7.2639C167.166 8.05324 167.934 9.0879 168.297 10.3679L164.553 11.5199C164.382 10.7092 164.03 10.1332 163.497 9.7919C162.985 9.45057 162.345 9.2799 161.577 9.2799C160.809 9.2799 160.222 9.41857 159.817 9.6959C159.411 9.9519 159.209 10.3146 159.209 10.7839C159.209 11.2959 159.422 11.6799 159.849 11.9359C160.275 12.1706 160.851 12.3519 161.577 12.4799L162.473 12.6399C163.667 12.8532 164.745 13.1412 165.705 13.5039C166.686 13.8452 167.454 14.3466 168.009 15.0079C168.585 15.6479 168.873 16.5226 168.873 17.6319C168.873 19.2959 168.265 20.5866 167.049 21.5039C165.854 22.3999 164.243 22.8479 162.217 22.8479Z" fill="white"/>
</svg>
